<svg xmlns="http://www.w3.org/2000/svg" viewBox="0 0 210 48" height="42" fill="none">
  <g transform="translate(6, 6)">
    <g transform="translate(0, 3) scale(1.05)">
      <circle cx="14" cy="14" r="14" fill="#25D366"/>
      <path d="M21.5 19.3c-.3-.2-1.9-.9-2.2-1-.3-.1-.5-.2-.7.2-.2.3-.8 1-.9 1.2-.2.2-.3.2-.6.1s-1.3-.5-2.5-1.5c-.9-.8-1.5-1.8-1.7-2.1-.2-.3 0-.5.1-.6.1-.1.3-.3.5-.5.2-.2.2-.3.3-.5.1-.2 0-.4 0-.5s-.7-1.7-1-2.3c-.3-.6-.5-.5-.7-.5h-.6c-.2 0-.6.1-.9.4s-1.2 1.2-1.2 2.9c0 1.7 1.2 3.4 1.4 3.6.2.2 2.4 3.7 5.9 5.2.8.4 1.5.6 2 .7.8.3 1.6.2 2.2.1.7-.1 2.1-.9 2.4-1.7.3-.8.3-1.6.2-1.7-.1-.1-.3-.2-.6-.3z" fill="#FFFFFF"/>
    </g>
    <text x="40" y="20" font-family="'Adobe Clean', 'Plus Jakarta Sans', -apple-system, BlinkMacSystemFont, 'Segoe UI', Roboto, sans-serif" font-size="17" font-weight="800" fill="#111827" letter-spacing="-0.02em">WhatsApp</text>
    <text x="40" y="30.5" font-family="'Adobe Clean', 'Plus Jakarta Sans', -apple-system, BlinkMacSystemFont, 'Segoe UI', Roboto, sans-serif" font-size="8.5" font-weight="700" fill="#4B5563" letter-spacing="0.08em">BUSINESS API PARTNER</text>
  </g>
</svg>
